HIERARCHY
ROOT hip
{
  OFFSET 0 0 0
  CHANNELS 6 Xposition Yposition Zposition Zrotation Yrotation Xrotation
  JOINT abdomen
  {
    OFFSET 0 20.6881 -0.73152
    CHANNELS 3 Zrotation Xrotation Yrotation
    JOINT chest
    {
      OFFSET 0 11.7043 -0.48768
      CHANNELS 3 Zrotation Xrotation Yrotation
      JOINT neck
      {
        OFFSET 0 22.1894 -2.19456
        CHANNELS 3 Zrotation Xrotation Yrotation
        JOINT head
        {
          OFFSET -0.24384 7.07133 1.2192
          CHANNELS 3 Zrotation Xrotation Yrotation
          JOINT leftEye
          {
            OFFSET 4.14528 8.04674 8.04672
            CHANNELS 3 Zrotation Xrotation Yrotation
            End Site
            {
              OFFSET 1 0 0
            }
          }
          JOINT rightEye
          {
            OFFSET -3.6576 8.04674 8.04672
            CHANNELS 3 Zrotation Xrotation Yrotation
            End Site
            {
              OFFSET 1 0 0
            }
          }
        }
      }
      JOINT rCollar
      {
        OFFSET -2.68224 19.2634 -4.8768
        CHANNELS 3 Zrotation Xrotation Yrotation
        JOINT rShldr
        {
          OFFSET -8.77824 -1.95073 1.46304
          CHANNELS 3 Zrotation Xrotation Yrotation
          JOINT rForeArm
          {
            OFFSET -28.1742 -1.7115 0.48768
            CHANNELS 3 Zrotation Xrotation Yrotation
            JOINT rHand
            {
              OFFSET -22.5879 0.773209 7.07136
              CHANNELS 3 Zrotation Xrotation Yrotation
              JOINT rThumb1
              {
                OFFSET -1.2192 -0.487915 3.41376
                CHANNELS 3 Zrotation Xrotation Yrotation
                JOINT rThumb2
                {
                  OFFSET -3.37035 -0.52449 3.41376
                  CHANNELS 3 Zrotation Xrotation Yrotation
                  End Site
                  {
                    OFFSET -1.78271 -1.18214 1.43049
                  }
                }
              }
              JOINT rIndex1
              {
                OFFSET -7.75947 0.938293 5.60832
                CHANNELS 3 Zrotation Xrotation Yrotation
                JOINT rIndex2
                {
                  OFFSET -2.54057 -0.884171 1.56538
                  CHANNELS 3 Zrotation Xrotation Yrotation
                  End Site
                  {
                    OFFSET -1.62519 -0.234802 1.16502
                  }
                }
              }
              JOINT rMid1
              {
                OFFSET -8.24714 1.18213 3.41376
                CHANNELS 3 Zrotation Xrotation Yrotation
                JOINT rMid2
                {
                  OFFSET -3.10165 -0.590103 1.0647
                  CHANNELS 3 Zrotation Xrotation Yrotation
                  End Site
                  {
                    OFFSET -2.48547 -0.328903 0.83742
                  }
                }
              }
              JOINT rRing1
              {
                OFFSET -8.82822 0.546677 1.51678
                CHANNELS 3 Zrotation Xrotation Yrotation
                JOINT rRing2
                {
                  OFFSET -2.60934 -0.819778 -0.0198488
                  CHANNELS 3 Zrotation Xrotation Yrotation
                  End Site
                  {
                    OFFSET -2.33842 -0.294052 0.168128
                  }
                }
              }
              JOINT rPinky1
              {
                OFFSET -8.27202 -0.0477905 -0.4584
                CHANNELS 3 Zrotation Xrotation Yrotation
                JOINT rPinky2
                {
                  OFFSET -1.82734 -0.647385 -0.700984
                  CHANNELS 3 Zrotation Xrotation Yrotation
                  End Site
                  {
                    OFFSET -1.69225 -0.51767 -0.607171
                  }
                }
              }
            }
          }
        }
      }
      JOINT lCollar
      {
        OFFSET 2.68224 19.2634 -4.8768
        CHANNELS 3 Zrotation Xrotation Yrotation
        JOINT lShldr
        {
          OFFSET 8.77824 -1.95073 1.46304
          CHANNELS 3 Zrotation Xrotation Yrotation
          JOINT lForeArm
          {
            OFFSET 28.1742 -1.7115 0.48768
            CHANNELS 3 Zrotation Xrotation Yrotation
            JOINT lHand
            {
              OFFSET 22.5879 0.773209 7.07136
              CHANNELS 3 Zrotation Xrotation Yrotation
              JOINT lThumb1
              {
                OFFSET 1.2192 -0.487915 3.41376
                CHANNELS 3 Zrotation Xrotation Yrotation
                JOINT lThumb2
                {
                  OFFSET 3.37035 -0.52449 3.41376
                  CHANNELS 3 Zrotation Xrotation Yrotation
                  End Site
                  {
                    OFFSET 1.78271 -1.18214 1.43049
                  }
                }
              }
              JOINT lIndex1
              {
                OFFSET 7.75947 0.938293 5.60832
                CHANNELS 3 Zrotation Xrotation Yrotation
                JOINT lIndex2
                {
                  OFFSET 2.54057 -0.884171 1.56538
                  CHANNELS 3 Zrotation Xrotation Yrotation
                  End Site
                  {
                    OFFSET 1.62519 -0.234802 1.16502
                  }
                }
              }
              JOINT lMid1
              {
                OFFSET 8.24714 1.18213 3.41376
                CHANNELS 3 Zrotation Xrotation Yrotation
                JOINT lMid2
                {
                  OFFSET 3.10165 -0.590103 1.0647
                  CHANNELS 3 Zrotation Xrotation Yrotation
                  End Site
                  {
                    OFFSET 2.48547 -0.328903 0.83742
                  }
                }
              }
              JOINT lRing1
              {
                OFFSET 8.82822 0.546677 1.51678
                CHANNELS 3 Zrotation Xrotation Yrotation
                JOINT lRing2
                {
                  OFFSET 2.60934 -0.819778 -0.0198488
                  CHANNELS 3 Zrotation Xrotation Yrotation
                  End Site
                  {
                    OFFSET 2.33842 -0.294052 0.168128
                  }
                }
              }
              JOINT lPinky1
              {
                OFFSET 8.27202 -0.0477905 -0.4584
                CHANNELS 3 Zrotation Xrotation Yrotation
                JOINT lPinky2
                {
                  OFFSET 1.82734 -0.647385 -0.700984
                  CHANNELS 3 Zrotation Xrotation Yrotation
                  End Site
                  {
                    OFFSET 1.69225 -0.51767 -0.607171
                  }
                }
              }
            }
          }
        }
      }
    }
  }
  JOINT rButtock
  {
    OFFSET -8.77824 4.35084 1.2192
    CHANNELS 3 Zrotation Xrotation Yrotation
    JOINT rThigh
    {
      OFFSET 0 -1.70687 -2.19456
      CHANNELS 3 Zrotation Xrotation Yrotation
      JOINT rShin
      {
        OFFSET 0 -36.8199 0.73152
        CHANNELS 3 Zrotation Xrotation Yrotation
        JOINT rFoot
        {
          OFFSET 0.73152 -45.1104 -5.12064
          CHANNELS 3 Zrotation Xrotation Yrotation
          End Site
          {
            OFFSET -1.1221 -3.69964 12.103
          }
        }
      }
    }
  }
  JOINT lButtock
  {
    OFFSET 8.77824 4.35084 1.2192
    CHANNELS 3 Zrotation Xrotation Yrotation
    JOINT lThigh
    {
      OFFSET 0 -1.70687 -2.19456
      CHANNELS 3 Zrotation Xrotation Yrotation
      JOINT lShin
      {
        OFFSET 0 -36.8199 0.73152
        CHANNELS 3 Zrotation Xrotation Yrotation
        JOINT lFoot
        {
          OFFSET -0.73152 -45.1104 -5.12064
          CHANNELS 3 Zrotation Xrotation Yrotation
          End Site
          {
            OFFSET 1.1221 -3.69964 12.103
          }
        }
      }
    }
  }
}
MOTION
Frames:	8
Frame Time:	0.00833333
33.3978 54.17999999999999 -80.63080000000001 10.195417 9.882263 9.11205 -9.434716 9.881979 -64.841098 8.919374 -2.380345 69.769329 -14.175324 22.495443 -59.259144 34.082767 -9.169828 23.086542 -0.003334 -0.0 0.002317 -0.003774 0.0 -0.002924 -155.417526 -2.951041 161.719647 -77.843999 -49.498183 -101.36104 165.835112 -11.056708 -168.26803 -30.305273 71.196984 19.869997 -2.608345 2.554726 0.456111 -55.258498 27.773072 51.073521 -83.732435 42.331833 69.990219 -8.626802 21.769383 1.147876 -36.035099 51.723308 29.832371 10.046064 -20.326852 -1.447884 -145.062331 -3.310996 -178.085354 -157.047708 45.545002 175.521875 10.596123 34.89423 9.100269 -129.246087 -29.093917 -126.853391 130.419924 54.548864 -134.287008 60.995508 8.064605 -102.646955 175.958451 -20.536573 76.806203 13.62046 -40.457677 10.301831 7.75856 7.439146 -1.681636 127.627803 -25.560312 -110.857971 90.225813 41.071367 -75.796276 -177.587645 -37.756669 -111.051013 111.804292 56.306194 -102.27877 150.429276 26.919705 -136.18671 145.100407 -1.522441 178.650673 -11.93987 26.39547 5.987892 4.07869 -9.639855 3.813479 158.380585 52.434832 149.919219 179.993171 75.749651 0.004672 145.628591 -1.82359 -0.0 -33.464468 71.863865 -56.035944 49.354342 -63.420127 147.363317 -179.730755 75.750019 -0.207521 -134.770186 75.967725 -0.0 20.943628 30.991247 -103.065322 30.164562 -44.926355 106.226307
33.590599999999995 54.4852 -80.6985 10.796648 9.841856 8.410251 -10.431563 8.870168 -98.834808 7.217564 3.021035 104.277443 -14.268045 22.611188 -59.303163 33.896882 -8.650987 22.344116 -0.003466 -0.0 0.000706 0.002247 0.0 0.00027 0.070406 -0.427917 -0.094244 72.708273 -38.947154 81.159153 1.412859 14.150482 20.228484 -6.550839 38.317359 3.523576 12.712962 -12.674216 -0.553438 -133.239117 -24.891384 120.03543 -129.577671 16.761753 108.786093 84.993677 -68.50777 36.186115 -151.477343 17.841704 137.53839 -168.968903 -22.214967 143.93698 0.000423 0.06375 0.020204 -156.488245 -25.190745 174.799102 -20.14318 -33.37644 -19.314618 -4.702629 -17.962557 -7.137548 155.548168 -3.80419 -161.900251 106.422609 31.375721 -56.423006 -79.247602 -51.359136 76.37211 102.510619 52.023619 -84.250071 179.373581 -16.877085 -89.359503 176.451117 -12.792296 -97.096645 1.161859 1.861244 -0.666916 -90.762011 -60.635875 -38.895904 160.098244 -4.901202 -142.968706 85.910668 63.861922 -77.762429 145.100268 -1.522227 178.650238 -12.082524 52.749996 2.717852 152.876275 39.992328 148.057039 -10.327451 24.843674 -3.935297 -0.0 0.001011 0.000864 -75.026314 -54.592762 102.297637 28.376273 -76.204866 -29.316699 -109.502524 -45.674297 159.760609 179.998269 75.750361 -0.0 -131.324516 76.754901 -47.709387 -13.120835 39.859308 -95.695276 49.301006 -7.424236 141.564934
33.6748 54.7392 -80.74369999999999 11.344451 9.767991 8.016115 -11.511051 8.862428 -97.833868 7.126049 3.416417 103.86944 6.526747 22.649454 82.394202 -34.813346 7.387382 -122.169978 0.000798 -0.0 -0.00115 0.000914 0.0 0.0011 -40.039511 -86.055954 -61.571465 -119.542496 -9.769011 163.494007 4.688608 27.849211 -52.868784 152.774912 -38.798279 137.905229 0.566789 -0.56191 -0.084215 -133.296814 -32.485764 117.171906 12.216708 -21.784591 -5.121792 -128.4269 26.261285 100.959531 -145.288417 29.523975 132.691211 167.471823 -64.008732 132.480052 7.9e-05 -0.060835 -0.019193 -155.402597 -1.038555 171.970434 -152.875158 39.991895 -148.058801 3.198238 3.629919 -0.782435 82.87761 68.300174 -86.000575 -87.69302 -3.840523 -47.468476 -173.708091 11.584246 -42.464639 140.406228 35.771338 -122.797768 7.758104 7.439397 -1.681236 14.481654 13.527789 -16.68994 19.170317 24.114831 -13.38031 100.862948 45.085776 -77.047218 -6.533692 -20.414847 2.717607 56.045263 62.318632 -49.197212 0.01551 -1.323526 0.41342 52.688775 -86.662815 74.29548 -25.910884 79.094564 -10.835994 -1.512165 0.326346 0.81592 179.996562 75.750888 0.002353 146.499372 -0.327661 -0.0 -6.278876 66.715942 44.824461 -152.77024 -24.243531 39.495861 179.997306 75.749877 0.002216 -138.13598 75.750285 137.244682 14.397219 -39.535243 102.760001 5.869534 35.003305 113.867309
33.6712 54.8956 -80.7548 11.436157 9.883244 7.858386 -12.449137 9.775977 -69.507841 9.055699 -0.22558 76.144172 -8.193618 16.249061 -10.875211 8.446355 -25.945465 -27.963992 0.000321 0.0 0.000987 0.000321 0.0 0.000987 3.737913 -33.150879 -6.412986 -177.614147 -29.800705 120.243597 144.544819 71.140739 -126.336915 -21.162232 65.041738 12.466334 11.509022 -11.48714 -0.62274 -155.070156 -74.807048 129.444446 -151.094213 -16.679326 121.049235 -169.703269 -31.815612 118.328789 -86.295214 60.961282 77.857345 4.47163 -3.100584 -0.219454 -74.842792 72.961893 92.827659 5.107727 28.347472 -0.713941 -143.940153 8.26497 -140.71945 -85.018983 -51.989101 -84.470351 80.166203 68.37182 -83.260813 -74.180345 7.933524 -48.485558 -174.348896 27.792288 -45.561915 142.185061 34.305059 -124.427193 7.758524 7.439082 -1.682179 133.724497 -35.02257 -113.388364 166.787425 -43.921213 -122.0672 167.568414 -32.401435 -117.740377 89.835558 60.702024 -81.262675 -177.64082 -53.113518 -139.696567 69.299321 72.94464 -87.018434 -5.870042 0.891483 4.293658 125.485669 -28.273151 123.235806 154.618801 36.785655 146.365504 179.759652 75.749096 0.185246 146.882208 0.135493 -0.654199 -36.598552 66.794028 -38.129063 4.971377 -32.846441 102.956055 -0.001153 -7.6e-05 -0.00173 10.5457 4.561652 -104.230747 -45.680142 -14.49165 -87.692297 90.527992 59.310907 164.691564
33.6239 54.9862 -80.7133 11.141286 10.231607 7.823133 -14.77505 10.903138 2.238437 4.886694 -10.095576 4.940688 -10.04906 17.087973 -21.355368 15.615346 -24.069554 -16.097057 0.004727 0.0 0.001173 0.004727 0.0 0.001173 -28.501893 57.372063 30.874755 -109.588099 68.276201 74.965988 175.519643 47.612848 -157.238582 -12.991192 55.388744 7.126266 -171.705568 -9.388805 89.947722 -131.40754 11.746806 64.673914 -90.225239 41.072773 75.796949 -167.466527 -15.627427 114.846127 -36.034132 51.723911 29.831319 -169.971933 -25.747026 144.207441 -0.022535 -1.726129 -0.541914 -150.704467 35.18086 165.830709 -5.64973 -12.86057 -5.302011 -147.409175 12.770416 -143.92854 48.787065 -86.434877 70.450261 -163.530192 -23.765131 132.000537 -57.577038 -5.642071 -142.350564 33.265504 23.50352 -13.300255 168.138037 -5.814687 -89.870945 134.821597 9.078279 -66.512609 -1.338526 -2.205457 0.737781 -1.247116 14.245586 -2.842065 36.03638 51.723186 -29.831942 15.964441 39.990903 -12.945691 145.120224 0.26806 179.211925 -12.001582 51.124409 2.973644 151.490057 34.558173 147.062229 -2.033963 0.358346 1.799076 0.002521 0.000639 0.002521 -68.510567 -53.958476 -64.7836 -10.980568 65.215647 37.363655 177.654926 -39.685111 18.279546 -179.720903 75.7494 -0.215113 -129.66798 77.118854 -49.414569 1.148361 34.69734 38.242055 118.328677 -20.767818 -6.032377
33.569900000000004 55.0539 -80.6292 10.691317 10.719808 7.793192 -14.372396 10.492512 -0.0 4.9031 -9.757608 6.851564 6.859771 26.225152 104.006143 -34.370317 20.13627 -140.582465 0.001044 -0.0 -0.001582 0.001621 0.0 0.003674 -155.80912 -5.55562 162.266251 25.397251 8.782962 -36.568777 8.64452 -78.785346 -47.111036 147.360636 -43.805905 134.540663 -2.813319 2.754407 0.49869 11.164855 -14.515843 -6.566846 -27.421884 30.639164 20.098662 -13.591493 26.530104 7.730298 -166.117439 -24.03991 145.078217 -42.532359 58.274576 36.571253 -145.119425 0.268067 -179.211816 -74.520241 -77.998554 -96.024106 0.547666 1.456625 0.506178 2.106467 -0.985051 -0.284486 150.168695 21.535496 -155.275981 110.715328 16.214775 -75.657234 -152.919875 17.454699 63.357211 20.418738 -6.805231 0.686933 95.361182 37.751149 -54.682602 -25.21924 -30.801712 -23.284904 121.824332 24.678724 -102.845257 165.344532 -14.630991 -117.406961 -23.903668 -61.333856 -1.399431 170.413381 -25.965043 -144.183561 0.001897 -0.018376 0.006509 156.493746 -25.963841 -174.890935 80.939472 -51.227413 79.359625 156.20741 44.591166 147.984966 -179.999013 75.74924 -0.001018 145.529856 -0.109076 89.961162 66.248507 6.955439 -94.370479 71.922044 6.887267 -9.277205 -179.999013 75.74924 -0.001018 -128.01934 76.363611 -52.772767 1.890079 38.666153 77.037665 178.523613 -24.140922 38.201438
33.5123 55.0938 -80.5295 10.291254 11.172421 7.71502 -16.466394 8.577129 74.01046 -5.8113 -8.836074 -68.012097 -11.477227 32.988165 -127.648117 34.179365 30.530668 77.989643 0.000716 -0.0 -0.000896 0.000501 -0.0 -0.003072 4.239902 -44.74277 -8.647028 20.373867 21.33606 48.594564 -15.762227 -0.513129 12.004202 3.018203 12.823521 4.688882 -78.0306 38.688743 42.412855 -74.828623 -0.86603 60.595299 -43.647384 38.804766 34.05901 179.694601 -33.39053 108.981379 -89.835989 60.702621 81.262622 -88.543056 63.882828 80.465166 -145.121776 1.973879 -179.750001 -157.47512 45.526619 175.524097 0.099742 0.258255 0.090486 1.501769 -2.663683 -0.819964 85.537585 68.18225 -88.688852 100.43314 -9.529238 -127.248265 -6.214649 -21.146975 134.160481 147.466457 28.351575 -129.741803 101.058975 36.783219 -58.641648 136.536273 -19.846249 -76.02874 -12.216173 -21.78483 5.11986 13.198183 31.454924 -11.522685 -1.28004 -3.803404 0.678762 163.609928 -5.760971 -143.454907 145.100085 -1.522295 178.650377 -11.932503 26.173504 6.014022 150.033478 28.966753 145.933944 25.942902 -40.225778 26.936784 0.000382 -0.000862 -0.000491 -67.173736 -53.202778 -63.026135 -33.183547 74.50416 -108.627902 -61.216981 39.209747 163.786858 -179.98669 75.748786 -0.009106 -126.850456 74.659399 -120.950252 -45.484978 6.430617 -74.199834 -40.080458 23.51192 -175.495522
33.432 55.100899999999996 -80.4279 9.99255 11.445706 7.604405 -14.008657 5.445074 180.0 -4.386496 4.952461 -173.681824 -4.027243 15.204063 12.863875 -7.512229 -25.376055 -56.05572 0.001801 -0.0 -0.003129 -0.003257 -0.0 0.00281 -155.504255 -3.514272 161.839252 77.43044 53.394481 -64.191649 27.586544 10.035128 7.569519 -97.059193 81.138832 83.735781 -10.481144 9.910622 2.49328 24.40683 -29.942311 -8.201348 60.462974 -70.523068 15.711015 -173.372217 -39.925425 110.435156 -4.680505 12.536459 2.932629 -4.909605 21.327313 4.415455 -0.015547 -1.323298 -0.414902 9.342703 12.723142 1.660445 -126.795464 -26.617902 -124.511159 -23.360969 -39.37255 -25.38787 9.652495 34.835866 -11.200552 91.855441 -14.61588 -179.242162 -96.416719 -29.048198 102.219357 46.445952 39.078159 -26.880756 172.354574 -10.036128 -89.939318 -43.719201 -67.593747 -34.193194 160.014642 -33.012003 -122.698434 29.353602 49.515437 -18.405258 -13.805002 -42.122932 2.984571 -144.439694 -74.621432 -112.804449 74.840563 72.96199 -92.827594 158.78735 -26.456763 -179.943369 132.782534 -17.595108 130.28407 25.103887 -40.41327 26.943725 -0.002768 -0.000268 -0.001384 -68.950618 -52.348542 23.376862 65.494214 7.188042 -89.378929 42.533473 6.766242 1.109328 -0.0 -0.00078 -0.001751 12.702799 4.076136 -104.126495 -44.514261 -8.802631 -137.530881 -166.946944 17.74206 77.51164
